<svg width="145" height="45" viewBox="0 0 145 45" fill="none" xmlns="http://www.w3.org/2000/svg">
<path d="M80.1825 13.26L75.3385 33H68.5905L65.8745 20.904L63.1025 33H56.3545L51.5665 13.26H57.5025L59.7985 26.756L62.9065 13.26H68.9265L71.9505 26.644L74.2465 13.26H80.1825ZM97.5194 24.964C97.5194 25.3933 97.4914 25.8227 97.4354 26.252H87.0474C87.1034 27.1107 87.3367 27.7547 87.7474 28.184C88.1767 28.5947 88.718 28.8 89.3714 28.8C90.286 28.8 90.9394 28.3893 91.3314 27.568H97.1834C96.9407 28.6507 96.4647 29.6213 95.7554 30.48C95.0647 31.32 94.1874 31.9827 93.1234 32.468C92.0594 32.9533 90.8834 33.196 89.5954 33.196C88.046 33.196 86.6647 32.8693 85.4514 32.216C84.2567 31.5627 83.314 30.6293 82.6234 29.416C81.9514 28.2027 81.6154 26.7747 81.6154 25.132C81.6154 23.4893 81.9514 22.0707 82.6234 20.876C83.2954 19.6627 84.2287 18.7293 85.4234 18.076C86.6367 17.4227 88.0274 17.096 89.5954 17.096C91.1447 17.096 92.5167 17.4133 93.7114 18.048C94.906 18.6827 95.8394 19.5973 96.5114 20.792C97.1834 21.968 97.5194 23.3587 97.5194 24.964ZM91.9194 23.592C91.9194 22.92 91.6954 22.3973 91.2474 22.024C90.7994 21.632 90.2394 21.436 89.5674 21.436C88.8954 21.436 88.3447 21.6227 87.9154 21.996C87.486 22.3507 87.206 22.8827 87.0754 23.592H91.9194ZM98.8693 25.132C98.8693 23.508 99.1586 22.0893 99.7373 20.876C100.335 19.6627 101.147 18.7293 102.173 18.076C103.2 17.4227 104.339 17.096 105.589 17.096C106.597 17.096 107.493 17.3107 108.277 17.74C109.08 18.1507 109.705 18.72 110.153 19.448V12.28H115.669V33H110.153V30.816C109.724 31.544 109.117 32.1227 108.333 32.552C107.549 32.9813 106.625 33.196 105.561 33.196C104.311 33.196 103.172 32.8693 102.145 32.216C101.137 31.5627 100.335 30.6293 99.7373 29.416C99.1586 28.184 98.8693 26.756 98.8693 25.132ZM110.181 25.132C110.181 24.124 109.901 23.3307 109.341 22.752C108.8 22.1733 108.128 21.884 107.325 21.884C106.504 21.884 105.823 22.1733 105.281 22.752C104.74 23.312 104.469 24.1053 104.469 25.132C104.469 26.14 104.74 26.9427 105.281 27.54C105.823 28.1187 106.504 28.408 107.325 28.408C108.128 28.408 108.8 28.1187 109.341 27.54C109.901 26.9613 110.181 26.1587 110.181 25.132ZM124.285 12.28V33H118.797V12.28H124.285ZM144.322 17.292L134.354 40.476H128.39L132.142 32.328L125.702 17.292H131.806L135.11 26.196L138.302 17.292H144.322Z" fill="#49516F"/>
<path d="M7.02437e-05 10C7.02437e-05 4.47715 4.47722 0 10.0001 0H35.0001C40.5229 0 45.0001 4.47715 45.0001 10V35C45.0001 40.5228 40.5229 45 35.0001 45H10.0001C4.47722 45 7.02437e-05 40.5228 7.02437e-05 35V10Z" fill="#FF477E"/>
<path d="M31.4804 14.5624C30.2649 13.1131 28.6537 12.2286 26.9378 12.0685C25.2219 11.9085 23.5144 12.4835 22.1239 13.6896C20.6649 12.3991 18.8491 11.814 17.0419 12.052C15.2347 12.29 13.5705 13.3334 12.3843 14.9723C11.1982 16.6111 10.5782 18.7235 10.6493 20.8842C10.7203 23.0449 11.4771 25.0933 12.7673 26.6169L19.8879 35.0987C20.4842 35.7966 21.2873 36.1878 22.1239 36.1878C22.9605 36.1878 23.7635 35.7966 24.3598 35.0987L31.4804 26.6169C32.8192 25.015 33.5706 22.8482 33.5706 20.5896C33.5706 18.3311 32.8192 16.1643 31.4804 14.5624ZM29.8636 24.7351L22.743 33.2033C22.662 33.3006 22.5656 33.3778 22.4593 33.4305C22.353 33.4832 22.239 33.5104 22.1239 33.5104C22.0087 33.5104 21.8947 33.4832 21.7884 33.4305C21.6821 33.3778 21.5857 33.3006 21.5047 33.2033L14.3841 24.6942C13.4848 23.601 12.9813 22.1326 12.9813 20.6033C12.9813 19.074 13.4848 17.6055 14.3841 16.5124C15.3004 15.4364 16.5363 14.8331 17.824 14.8331C19.1117 14.8331 20.3475 15.4364 21.2639 16.5124C21.3705 16.6402 21.4973 16.7416 21.637 16.8109C21.7767 16.8801 21.9266 16.9157 22.078 16.9157C22.2294 16.9157 22.3792 16.8801 22.519 16.8109C22.6587 16.7416 22.7855 16.6402 22.8921 16.5124C23.8084 15.4364 25.0443 14.8331 26.332 14.8331C27.6197 14.8331 28.8556 15.4364 29.7719 16.5124C30.6835 17.5912 31.2036 19.0517 31.2207 20.581C31.2379 22.1103 30.7507 23.5868 29.8636 24.6942V24.7351Z" fill="white"/>
</svg>
