<svg width="51" height="50" viewBox="0 0 51 50" fill="none" xmlns="http://www.w3.org/2000/svg">
<path fill-rule="evenodd" clip-rule="evenodd" d="M34.2941 0.196869C36.9487 -0.574292 39.7155 0.988581 40.474 3.68764C40.6016 4.14173 40.6663 4.61169 40.6663 5.08395V9.33887H45.6652C48.4261 9.33887 50.6642 11.6144 50.6642 14.4215V44.9174C50.6642 47.7244 48.4261 50 45.6652 50H5.67385C2.91302 50 0.674927 47.7244 0.674927 44.9174H0.741682C0.697305 44.6441 0.674927 44.3672 0.674927 44.0895V13.7971C0.674927 11.5278 2.1545 9.53339 4.30054 8.90997L34.2941 0.196869ZM21.0205 44.9174H45.6652V14.4215H40.6663L40.6663 19.5042H45.6652V24.5868H40.6663L40.6663 35.3764C40.6663 37.6457 39.1868 39.6401 37.0407 40.2635L21.0205 44.9174ZM5.67384 13.7968V44.0893L35.6674 35.3762V5.08374L5.67384 13.7968ZM30.6685 19.504C30.6685 20.9075 29.5494 22.0453 28.169 22.0453C26.7886 22.0453 25.6695 20.9075 25.6695 19.504C25.6695 18.1004 26.7886 16.9626 28.169 16.9626C29.5494 16.9626 30.6685 18.1004 30.6685 19.504Z" fill="#FF477E"/>
</svg>
