<svg width="51" height="50" viewBox="0 0 51 50" fill="none" xmlns="http://www.w3.org/2000/svg">
    <path fill-rule="evenodd" clip-rule="evenodd" d="M15.6706 10H10.672V7.5H5.67352V15H45.662V7.5H40.6634V10H35.6648V7.5H15.6706V10ZM45.662 20H5.67352V45H45.662V20ZM35.6648 2.5H15.6706V0H10.672V2.5H5.67349C2.91286 2.5 0.674927 4.73858 0.674927 7.5V45C0.674927 47.7614 2.91286 50 5.67349 50H45.662C48.4226 50 50.6605 47.7614 50.6605 45V7.5C50.6605 4.73858 48.4226 2.5 45.662 2.5H40.6634V0H35.6648V2.5ZM18.1698 30H13.1713V25H18.1698V30ZM23.1684 30H28.167V25H23.1684V30ZM38.1642 30H33.1656V25H38.1642V30ZM13.1713 40H18.1698V35H13.1713V40ZM28.167 40H23.1684V35H28.167V40Z" fill="#FF477E" />
</svg>