<svg width="52" height="51" viewBox="0 0 52 51" fill="none" xmlns="http://www.w3.org/2000/svg">
    <path fill-rule="evenodd" clip-rule="evenodd" d="M1.15008 46.0098C1.16981 48.7712 3.42384 50.9937 6.1846 50.974L39.7121 50.7345L51.0919 39.1884L50.8523 5.65372C50.8325 2.89237 48.5785 0.669836 45.8178 0.68956L5.82738 0.975272C3.06662 0.994997 0.844576 3.24951 0.864304 6.01086L1.15008 46.0098ZM5.86309 5.97514L45.8535 5.68943L46.0499 33.1887L38.5517 33.2423C35.791 33.262 33.5689 35.5165 33.5887 38.2779L33.6422 45.7777L6.14886 45.9741L5.86309 5.97514ZM38.5875 38.2422L45.0504 38.196L38.6336 44.7065L38.5875 38.2422ZM13.5578 33.4209L13.5935 38.4207L28.5899 38.3136L28.5542 33.3137L13.5578 33.4209ZM13.522 28.421L13.4863 23.4211L38.4803 23.2426L38.516 28.2424L13.522 28.421ZM13.4149 13.4214L13.4506 18.4213L38.4446 18.2427L38.4089 13.2428L13.4149 13.4214Z" fill="#FF477E" />
</svg>